<?xml version="1.0" encoding="UTF-8"?>
<svg width="34px" height="43px" viewBox="0 0 34 43" version="1.1" xmlns="http://www.w3.org/2000/svg" xmlns:xlink="http://www.w3.org/1999/xlink">
    <!-- Generator: Sketch 63.1 (92452) - https://sketch.com -->
    <title>Logo</title>
    <desc>Created with Sketch.</desc>
    <g id="Landing" stroke="none" stroke-width="1" fill="none" fill-rule="evenodd">
        <g transform="translate(-44.000000, -30.000000)" fill-rule="nonzero" id="Navigation">
            <g transform="translate(44.000000, 28.000000)">
                <g id="Eiendomsappen_Logo" transform="translate(0.000000, 1.449198)">
                    <g id="Logo" transform="translate(0.000000, 0.550802)">
                        <path d="M6.97703133,43 L6.97703133,38.6517776 L3.48985186,38.6517776 L3.48985186,43 L0,43 L0,18.2002663 C0,17.9349823 0.121652438,17.6842392 0.330302762,17.5194652 L9.75489497,10.0767335 C9.94356564,9.92773763 10.2177305,9.95935513 10.3672595,10.1473532 C10.4283142,10.2241154 10.4615385,10.319187 10.4615385,10.417134 L10.4615385,43 L6.97703133,43 Z M3.48717949,29.0856882 L3.48931421,33.863466 L6.97435897,33.863466 L6.97435897,29.0856882 L3.48717949,29.0856882 Z M3.48717949,19.5454545 L3.48717949,24.3232323 L6.97435897,24.3232323 L6.97435897,19.5454545 L3.48717949,19.5454545 Z" id="Left" fill="#2B415F"></path>
                        <path d="M27.8974359,43.0000015 L27.8974359,38.6564421 L18.3076923,38.6564421 L18.3076923,43.0000015 L12.2051282,43.0000015 L12.2051282,1.30303179 C12.2051282,0.583388027 12.790602,1.48921518e-06 13.5128205,1.48921518e-06 C13.637033,1.48921518e-06 13.7606119,0.0176356233 13.8798322,0.0523723204 L33.0593193,5.64062021 C33.616839,5.80306244 34,6.31248487 34,6.89127968 L34,43.0000015 L27.8974359,43.0000015 Z M16.3461538,9.554604 L16.3461538,14.3323818 L21.1410256,14.3323818 L21.1410256,9.554604 L16.3461538,9.554604 Z M16.3461538,29.1006146 L16.3461538,33.8783924 L21.1410256,33.8783924 L21.1410256,29.1006146 L16.3461538,29.1006146 Z M16.3461538,19.5447872 L16.3461538,24.322565 L21.1410256,24.322565 L21.1410256,19.5447872 L16.3461538,19.5447872 Z M25.0205128,19.5447872 L25.0205128,24.322565 L29.8153846,24.322565 L29.8153846,19.5447872 L25.0205128,19.5447872 Z M25.0205128,29.1006146 L25.0205128,33.8783924 L29.8153846,33.8783924 L29.8153846,29.1006146 L25.0205128,29.1006146 Z M25.0205128,9.554604 L25.0205128,14.3323818 L29.8153846,14.3323818 L29.8153846,9.554604 L25.0205128,9.554604 Z" id="Right" fill="#0D5BF1"></path>
                    </g>
                </g>
            </g>
        </g>
    </g>
</svg>