<svg width="34" height="43" viewBox="0 0 34 43" xmlns="http://www.w3.org/2000/svg"><g fill="none"><path d="M6.977 43v-4.348H3.49V43H0V18.2c0-.265.122-.516.33-.68l9.425-7.443a.437.437 0 01.707.34V43H6.977zm-3.49-13.914l.002 4.777h3.485v-4.777H3.487zm0-9.54v4.777h3.487v-4.778H3.487z" fill="#2B415F"/><path d="M27.897 43v-4.344h-9.59V43h-6.102V1.303A1.305 1.305 0 0113.88.053L33.06 5.64c.557.162.94.671.94 1.25V43h-6.103zM16.347 9.555v4.777h4.794V9.555h-4.795zm0 19.546v4.777h4.794v-4.777h-4.795zm0-9.556v4.778h4.794v-4.778h-4.795zm8.674 0v4.778h4.794v-4.778h-4.794zm0 9.556v4.777h4.794v-4.777h-4.794zm0-19.546v4.777h4.794V9.555h-4.794z" fill="#0D5BF1"/></g></svg>